<svg xmlns="http://www.w3.org/2000/svg" xmlns:xlink="http://www.w3.org/1999/xlink" width="150" zoomAndPan="magnify" viewBox="0 0 112.5 112.499997" height="150" preserveAspectRatio="xMidYMid meet" version="1.0"><defs><clipPath id="06eb720b2e"><path d="M 0 0 L 112.003906 0 L 112.003906 112.003906 L 0 112.003906 Z M 0 0 " clip-rule="nonzero"/></clipPath></defs><g clip-path="url(#06eb720b2e)"><path fill="#000000" d="M 56 108.515625 C 27.042969 108.515625 3.484375 84.957031 3.484375 56 C 3.484375 27.042969 27.042969 3.484375 56 3.484375 C 84.957031 3.484375 108.515625 27.042969 108.515625 56 C 108.515625 84.957031 84.957031 108.515625 56 108.515625 Z M 95.601562 16.402344 C 85.023438 5.824219 70.960938 0 56 0 C 41.042969 0 26.980469 5.824219 16.402344 16.402344 C 5.824219 26.980469 0 41.042969 0 56 C 0 70.960938 5.824219 85.023438 16.402344 95.601562 C 26.980469 106.175781 41.042969 112.003906 56 112.003906 C 70.960938 112.003906 85.023438 106.175781 95.601562 95.601562 C 106.175781 85.023438 112.003906 70.960938 112.003906 56 C 112.003906 41.042969 106.175781 26.980469 95.601562 16.402344 " fill-opacity="1" fill-rule="nonzero"/></g><path fill="#000000" d="M 83.589844 73.316406 L 57.746094 55.097656 L 57.746094 28.546875 C 57.746094 27.582031 56.964844 26.800781 56 26.800781 C 55.039062 26.800781 54.257812 27.582031 54.257812 28.546875 L 54.257812 56 C 54.257812 56.566406 54.535156 57.097656 54.996094 57.425781 L 81.582031 76.164062 C 81.886719 76.382812 82.238281 76.484375 82.585938 76.484375 C 83.132812 76.484375 83.671875 76.226562 84.011719 75.746094 C 84.566406 74.957031 84.378906 73.871094 83.589844 73.316406 " fill-opacity="1" fill-rule="nonzero"/></svg>