<svg xmlns="http://www.w3.org/2000/svg" xmlns:xlink="http://www.w3.org/1999/xlink" width="100" zoomAndPan="magnify" viewBox="0 0 75 74.999997" height="100" preserveAspectRatio="xMidYMid meet" version="1.0"><defs><g/><clipPath id="8fd26cef38"><path d="M 33.277344 40.773438 L 41.722656 40.773438 L 41.722656 52.828125 L 33.277344 52.828125 Z M 33.277344 40.773438 " clip-rule="nonzero"/></clipPath><clipPath id="260f48e5d6"><path d="M 33.277344 13.628906 L 41.722656 13.628906 L 41.722656 25.683594 L 33.277344 25.683594 Z M 33.277344 13.628906 " clip-rule="nonzero"/></clipPath></defs><g fill="#1c2120" fill-opacity="1"><g transform="translate(25.09999, 48.975055)"><g><path d="M 11.75 -33 C 13.09375 -33 14.15625 -32.851562 14.9375 -32.5625 C 15.71875 -32.28125 16.523438 -31.863281 17.359375 -31.3125 C 18.023438 -30.882812 18.539062 -30.671875 18.90625 -30.671875 C 19.1875 -30.671875 19.398438 -30.828125 19.546875 -31.140625 C 19.703125 -31.460938 19.828125 -31.976562 19.921875 -32.6875 L 20.984375 -32.6875 C 20.828125 -30.90625 20.75 -27.785156 20.75 -23.328125 L 19.6875 -23.328125 C 19.507812 -25.796875 18.800781 -27.878906 17.5625 -29.578125 C 16.320312 -31.285156 14.523438 -32.140625 12.171875 -32.140625 C 10.515625 -32.140625 9.164062 -31.640625 8.125 -30.640625 C 7.082031 -29.648438 6.5625 -28.375 6.5625 -26.8125 C 6.5625 -25.644531 6.828125 -24.632812 7.359375 -23.78125 C 7.898438 -22.925781 8.582031 -22.191406 9.40625 -21.578125 C 10.238281 -20.960938 11.421875 -20.179688 12.953125 -19.234375 L 14.28125 -18.40625 C 16.207031 -17.21875 17.726562 -16.171875 18.84375 -15.265625 C 19.957031 -14.359375 20.851562 -13.320312 21.53125 -12.15625 C 22.207031 -11 22.546875 -9.640625 22.546875 -8.078125 C 22.546875 -5.296875 21.625 -3.144531 19.78125 -1.625 C 17.945312 -0.113281 15.625 0.640625 12.8125 0.640625 C 11.34375 0.640625 10.140625 0.484375 9.203125 0.171875 C 8.265625 -0.128906 7.367188 -0.539062 6.515625 -1.0625 C 5.847656 -1.488281 5.328125 -1.703125 4.953125 -1.703125 C 4.679688 -1.703125 4.46875 -1.539062 4.3125 -1.21875 C 4.15625 -0.894531 4.035156 -0.378906 3.953125 0.328125 L 2.890625 0.328125 C 3.015625 -1.359375 3.078125 -5.035156 3.078125 -10.703125 L 4.125 -10.703125 C 4.34375 -7.609375 5.109375 -5.097656 6.421875 -3.171875 C 7.742188 -1.242188 9.765625 -0.28125 12.484375 -0.28125 C 14.140625 -0.28125 15.546875 -0.789062 16.703125 -1.8125 C 17.867188 -2.832031 18.453125 -4.351562 18.453125 -6.375 C 18.453125 -8.09375 17.878906 -9.546875 16.734375 -10.734375 C 15.585938 -11.929688 13.773438 -13.28125 11.296875 -14.78125 C 9.484375 -15.882812 8.019531 -16.863281 6.90625 -17.71875 C 5.789062 -18.570312 4.878906 -19.601562 4.171875 -20.8125 C 3.472656 -22.019531 3.125 -23.4375 3.125 -25.0625 C 3.125 -27.632812 3.945312 -29.597656 5.59375 -30.953125 C 7.25 -32.316406 9.300781 -33 11.75 -33 Z M 11.75 -33 "/></g></g></g><g clip-path="url(#8fd26cef38)"><path fill="#ffffff" d="M 33.277344 40.773438 L 41.722656 40.773438 L 41.722656 52.828125 L 33.277344 52.828125 Z M 33.277344 40.773438 " fill-opacity="1" fill-rule="nonzero"/></g><g clip-path="url(#260f48e5d6)"><path fill="#ffffff" d="M 33.277344 13.628906 L 41.722656 13.628906 L 41.722656 25.683594 L 33.277344 25.683594 Z M 33.277344 13.628906 " fill-opacity="1" fill-rule="nonzero"/></g><g fill="#1c2120" fill-opacity="1"><g transform="translate(18.127729, 55.895207)"><g><path d="M 36.9375 -44.171875 C 36.644531 -41.222656 36.5 -38.5625 36.5 -36.1875 C 36.5 -34.101562 36.5625 -32.398438 36.6875 -31.078125 L 35.25 -31.078125 C 34.914062 -34.273438 34.5 -36.648438 34 -38.203125 C 33.5 -39.765625 32.625 -40.910156 31.375 -41.640625 C 30.132812 -42.367188 28.222656 -42.734375 25.640625 -42.734375 L 22.265625 -42.734375 L 22.265625 -7.234375 C 22.265625 -5.484375 22.429688 -4.210938 22.765625 -3.421875 C 23.097656 -2.640625 23.679688 -2.101562 24.515625 -1.8125 C 25.347656 -1.519531 26.703125 -1.332031 28.578125 -1.25 L 28.578125 0 C 26.410156 -0.125 23.351562 -0.1875 19.40625 -0.1875 C 15.25 -0.1875 12.171875 -0.125 10.171875 0 L 10.171875 -1.25 C 12.046875 -1.332031 13.394531 -1.519531 14.21875 -1.8125 C 15.050781 -2.101562 15.632812 -2.640625 15.96875 -3.421875 C 16.300781 -4.210938 16.46875 -5.484375 16.46875 -7.234375 L 16.46875 -42.734375 L 13.109375 -42.734375 C 10.523438 -42.734375 8.609375 -42.367188 7.359375 -41.640625 C 6.109375 -40.910156 5.234375 -39.765625 4.734375 -38.203125 C 4.242188 -36.648438 3.832031 -34.273438 3.5 -31.078125 L 2.0625 -31.078125 C 2.1875 -32.398438 2.25 -34.101562 2.25 -36.1875 C 2.25 -38.5625 2.101562 -41.222656 1.8125 -44.171875 C 5.257812 -44.046875 11.125 -43.984375 19.40625 -43.984375 C 27.632812 -43.984375 33.476562 -44.046875 36.9375 -44.171875 Z M 36.9375 -44.171875 "/></g></g></g><g fill="#1c2120" fill-opacity="1"><g transform="translate(7.117781, 65.190298)"><g><path d="M 3.21875 -0.140625 L 3.21875 -5.84375 L 3.984375 -5.84375 C 4.253906 -5.84375 4.488281 -5.703125 4.6875 -5.421875 C 4.894531 -5.140625 5.035156 -4.757812 5.109375 -4.28125 L 5.296875 -4.28125 L 5.15625 -5.828125 C 5.144531 -5.929688 5.085938 -5.984375 4.984375 -5.984375 L 0.59375 -5.984375 C 0.476562 -5.984375 0.414062 -5.929688 0.40625 -5.828125 L 0.28125 -4.28125 L 0.46875 -4.28125 C 0.53125 -4.757812 0.660156 -5.140625 0.859375 -5.421875 C 1.066406 -5.703125 1.304688 -5.84375 1.578125 -5.84375 L 2.34375 -5.84375 L 2.34375 -0.140625 L 1.578125 -0.140625 L 1.578125 0 L 3.984375 0 L 3.984375 -0.140625 Z M 3.21875 -0.140625 "/></g></g></g><g fill="#1c2120" fill-opacity="1"><g transform="translate(12.626501, 65.190298)"><g><path d="M 3.125 0.171875 C 3.5 0.171875 3.851562 0.0820312 4.1875 -0.09375 C 4.519531 -0.269531 4.8125 -0.503906 5.0625 -0.796875 C 5.3125 -1.085938 5.507812 -1.421875 5.65625 -1.796875 C 5.800781 -2.171875 5.875 -2.5625 5.875 -2.96875 C 5.875 -3.375 5.800781 -3.765625 5.65625 -4.140625 C 5.507812 -4.515625 5.3125 -4.84375 5.0625 -5.125 C 4.8125 -5.414062 4.519531 -5.644531 4.1875 -5.8125 C 3.851562 -5.988281 3.5 -6.078125 3.125 -6.078125 C 2.738281 -6.078125 2.378906 -5.988281 2.046875 -5.8125 C 1.710938 -5.644531 1.421875 -5.414062 1.171875 -5.125 C 0.921875 -4.84375 0.722656 -4.515625 0.578125 -4.140625 C 0.429688 -3.765625 0.359375 -3.375 0.359375 -2.96875 C 0.359375 -2.5625 0.429688 -2.171875 0.578125 -1.796875 C 0.722656 -1.421875 0.921875 -1.085938 1.171875 -0.796875 C 1.421875 -0.503906 1.710938 -0.269531 2.046875 -0.09375 C 2.378906 0.0820312 2.738281 0.171875 3.125 0.171875 Z M 3.125 -5.921875 C 3.382812 -5.921875 3.617188 -5.878906 3.828125 -5.796875 C 4.035156 -5.710938 4.207031 -5.570312 4.34375 -5.375 C 4.488281 -5.175781 4.597656 -4.914062 4.671875 -4.59375 C 4.742188 -4.28125 4.78125 -3.882812 4.78125 -3.40625 L 4.78125 -2.515625 C 4.78125 -1.660156 4.632812 -1.023438 4.34375 -0.609375 C 4.0625 -0.191406 3.65625 0.015625 3.125 0.015625 C 2.582031 0.015625 2.164062 -0.191406 1.875 -0.609375 C 1.59375 -1.023438 1.453125 -1.660156 1.453125 -2.515625 L 1.453125 -3.40625 C 1.453125 -3.875 1.488281 -4.265625 1.5625 -4.578125 C 1.632812 -4.898438 1.738281 -5.160156 1.875 -5.359375 C 2.019531 -5.554688 2.195312 -5.695312 2.40625 -5.78125 C 2.613281 -5.875 2.851562 -5.921875 3.125 -5.921875 Z M 3.125 -5.921875 "/></g></g></g><g fill="#1c2120" fill-opacity="1"><g transform="translate(18.775975, 65.190298)"><g><path d="M 2.90625 -5.984375 L 0.28125 -5.984375 L 0.28125 -5.84375 L 1.0625 -5.84375 L 1.0625 -0.140625 L 0.28125 -0.140625 L 0.28125 0 L 2.90625 0 C 3.320312 0 3.703125 -0.0703125 4.046875 -0.21875 C 4.390625 -0.363281 4.679688 -0.566406 4.921875 -0.828125 C 5.171875 -1.097656 5.363281 -1.421875 5.5 -1.796875 C 5.632812 -2.179688 5.703125 -2.601562 5.703125 -3.0625 C 5.703125 -3.5 5.632812 -3.894531 5.5 -4.25 C 5.363281 -4.613281 5.171875 -4.921875 4.921875 -5.171875 C 4.671875 -5.429688 4.375 -5.628906 4.03125 -5.765625 C 3.695312 -5.910156 3.320312 -5.984375 2.90625 -5.984375 Z M 4.71875 -3.28125 L 4.71875 -2.84375 C 4.71875 -2.3125 4.664062 -1.867188 4.5625 -1.515625 C 4.46875 -1.171875 4.335938 -0.894531 4.171875 -0.6875 C 4.003906 -0.488281 3.8125 -0.347656 3.59375 -0.265625 C 3.375 -0.179688 3.140625 -0.140625 2.890625 -0.140625 L 1.9375 -0.140625 L 1.9375 -5.84375 L 2.890625 -5.84375 C 3.140625 -5.84375 3.375 -5.796875 3.59375 -5.703125 C 3.8125 -5.617188 4.003906 -5.476562 4.171875 -5.28125 C 4.335938 -5.082031 4.46875 -4.820312 4.5625 -4.5 C 4.664062 -4.175781 4.71875 -3.769531 4.71875 -3.28125 Z M 4.71875 -3.28125 "/></g></g></g><g fill="#1c2120" fill-opacity="1"><g transform="translate(24.667369, 65.190298)"><g><path d="M 2.90625 -5.984375 L 0.28125 -5.984375 L 0.28125 -5.84375 L 1.0625 -5.84375 L 1.0625 -0.140625 L 0.28125 -0.140625 L 0.28125 0 L 2.90625 0 C 3.320312 0 3.703125 -0.0703125 4.046875 -0.21875 C 4.390625 -0.363281 4.679688 -0.566406 4.921875 -0.828125 C 5.171875 -1.097656 5.363281 -1.421875 5.5 -1.796875 C 5.632812 -2.179688 5.703125 -2.601562 5.703125 -3.0625 C 5.703125 -3.5 5.632812 -3.894531 5.5 -4.25 C 5.363281 -4.613281 5.171875 -4.921875 4.921875 -5.171875 C 4.671875 -5.429688 4.375 -5.628906 4.03125 -5.765625 C 3.695312 -5.910156 3.320312 -5.984375 2.90625 -5.984375 Z M 4.71875 -3.28125 L 4.71875 -2.84375 C 4.71875 -2.3125 4.664062 -1.867188 4.5625 -1.515625 C 4.46875 -1.171875 4.335938 -0.894531 4.171875 -0.6875 C 4.003906 -0.488281 3.8125 -0.347656 3.59375 -0.265625 C 3.375 -0.179688 3.140625 -0.140625 2.890625 -0.140625 L 1.9375 -0.140625 L 1.9375 -5.84375 L 2.890625 -5.84375 C 3.140625 -5.84375 3.375 -5.796875 3.59375 -5.703125 C 3.8125 -5.617188 4.003906 -5.476562 4.171875 -5.28125 C 4.335938 -5.082031 4.46875 -4.820312 4.5625 -4.5 C 4.664062 -4.175781 4.71875 -3.769531 4.71875 -3.28125 Z M 4.71875 -3.28125 "/></g></g></g><g fill="#1c2120" fill-opacity="1"><g transform="translate(30.558763, 65.190298)"><g><path d="M 1.796875 -5.609375 C 1.796875 -5.796875 1.734375 -5.945312 1.609375 -6.0625 C 1.492188 -6.175781 1.347656 -6.234375 1.171875 -6.234375 C 1.003906 -6.234375 0.863281 -6.1875 0.75 -6.09375 C 0.644531 -6 0.59375 -5.878906 0.59375 -5.734375 C 0.59375 -5.578125 0.640625 -5.457031 0.734375 -5.375 C 0.828125 -5.300781 0.945312 -5.265625 1.09375 -5.265625 C 1.1875 -5.265625 1.269531 -5.289062 1.34375 -5.34375 C 1.425781 -5.394531 1.472656 -5.472656 1.484375 -5.578125 C 1.484375 -5.628906 1.492188 -5.65625 1.515625 -5.65625 C 1.566406 -5.65625 1.59375 -5.582031 1.59375 -5.4375 C 1.59375 -5.363281 1.578125 -5.273438 1.546875 -5.171875 C 1.515625 -5.078125 1.460938 -4.976562 1.390625 -4.875 C 1.328125 -4.78125 1.238281 -4.6875 1.125 -4.59375 C 1.019531 -4.5 0.894531 -4.421875 0.75 -4.359375 C 0.71875 -4.347656 0.703125 -4.332031 0.703125 -4.3125 C 0.703125 -4.300781 0.71875 -4.296875 0.75 -4.296875 C 0.757812 -4.296875 0.773438 -4.300781 0.796875 -4.3125 C 0.972656 -4.382812 1.125 -4.46875 1.25 -4.5625 C 1.375 -4.664062 1.476562 -4.773438 1.5625 -4.890625 C 1.644531 -5.015625 1.703125 -5.140625 1.734375 -5.265625 C 1.773438 -5.390625 1.796875 -5.503906 1.796875 -5.609375 Z M 1.796875 -5.609375 "/></g></g></g><g fill="#1c2120" fill-opacity="1"><g transform="translate(32.667919, 65.190298)"><g><path d="M 4.015625 -6.046875 L 3.765625 -5.71875 C 3.648438 -5.78125 3.546875 -5.832031 3.453125 -5.875 C 3.359375 -5.925781 3.257812 -5.960938 3.15625 -5.984375 C 3.0625 -6.015625 2.957031 -6.035156 2.84375 -6.046875 C 2.738281 -6.066406 2.613281 -6.078125 2.46875 -6.078125 C 2.1875 -6.078125 1.929688 -6.03125 1.703125 -5.9375 C 1.472656 -5.84375 1.273438 -5.710938 1.109375 -5.546875 C 0.953125 -5.390625 0.832031 -5.207031 0.75 -5 C 0.664062 -4.789062 0.625 -4.570312 0.625 -4.34375 C 0.625 -4.03125 0.71875 -3.742188 0.90625 -3.484375 C 1.101562 -3.222656 1.40625 -3.023438 1.8125 -2.890625 C 2.007812 -2.816406 2.175781 -2.757812 2.3125 -2.71875 C 2.445312 -2.675781 2.570312 -2.632812 2.6875 -2.59375 C 2.8125 -2.5625 2.929688 -2.519531 3.046875 -2.46875 C 3.171875 -2.425781 3.316406 -2.367188 3.484375 -2.296875 C 3.679688 -2.203125 3.816406 -2.066406 3.890625 -1.890625 C 3.960938 -1.722656 4 -1.554688 4 -1.390625 C 4 -1.171875 3.957031 -0.972656 3.875 -0.796875 C 3.789062 -0.628906 3.679688 -0.484375 3.546875 -0.359375 C 3.410156 -0.242188 3.253906 -0.148438 3.078125 -0.078125 C 2.898438 -0.015625 2.71875 0.015625 2.53125 0.015625 C 2.3125 0.015625 2.101562 -0.0195312 1.90625 -0.09375 C 1.71875 -0.175781 1.539062 -0.285156 1.375 -0.421875 C 1.207031 -0.554688 1.0625 -0.722656 0.9375 -0.921875 C 0.8125 -1.128906 0.71875 -1.359375 0.65625 -1.609375 C 0.632812 -1.679688 0.601562 -1.71875 0.5625 -1.71875 C 0.519531 -1.71875 0.5 -1.675781 0.5 -1.59375 L 0.5 0 C 0.5 0.0703125 0.523438 0.109375 0.578125 0.109375 C 0.609375 0.109375 0.644531 0.0820312 0.6875 0.03125 L 1.015625 -0.4375 C 1.085938 -0.375 1.175781 -0.304688 1.28125 -0.234375 C 1.382812 -0.160156 1.5 -0.09375 1.625 -0.03125 C 1.75 0.0195312 1.882812 0.0664062 2.03125 0.109375 C 2.175781 0.148438 2.328125 0.171875 2.484375 0.171875 C 2.765625 0.171875 3.023438 0.117188 3.265625 0.015625 C 3.515625 -0.0859375 3.726562 -0.226562 3.90625 -0.40625 C 4.082031 -0.59375 4.222656 -0.8125 4.328125 -1.0625 C 4.429688 -1.320312 4.484375 -1.597656 4.484375 -1.890625 C 4.484375 -2.285156 4.390625 -2.617188 4.203125 -2.890625 C 4.015625 -3.171875 3.722656 -3.367188 3.328125 -3.484375 C 3.191406 -3.523438 3.0625 -3.5625 2.9375 -3.59375 C 2.820312 -3.625 2.703125 -3.65625 2.578125 -3.6875 C 2.453125 -3.726562 2.320312 -3.769531 2.1875 -3.8125 C 2.050781 -3.863281 1.898438 -3.921875 1.734375 -3.984375 C 1.546875 -4.054688 1.40625 -4.164062 1.3125 -4.3125 C 1.21875 -4.457031 1.171875 -4.628906 1.171875 -4.828125 C 1.171875 -5.015625 1.207031 -5.175781 1.28125 -5.3125 C 1.351562 -5.445312 1.453125 -5.5625 1.578125 -5.65625 C 1.703125 -5.75 1.84375 -5.816406 2 -5.859375 C 2.15625 -5.898438 2.3125 -5.921875 2.46875 -5.921875 C 2.71875 -5.921875 2.929688 -5.878906 3.109375 -5.796875 C 3.296875 -5.710938 3.453125 -5.601562 3.578125 -5.46875 C 3.703125 -5.332031 3.800781 -5.175781 3.875 -5 C 3.945312 -4.820312 4 -4.632812 4.03125 -4.4375 C 4.03125 -4.382812 4.054688 -4.359375 4.109375 -4.359375 C 4.148438 -4.359375 4.171875 -4.382812 4.171875 -4.4375 L 4.171875 -6.03125 C 4.171875 -6.09375 4.148438 -6.125 4.109375 -6.125 C 4.078125 -6.125 4.046875 -6.097656 4.015625 -6.046875 Z M 4.015625 -6.046875 "/></g></g></g><g fill="#1c2120" fill-opacity="1"><g transform="translate(37.491385, 65.190298)"><g/></g></g><g fill="#1c2120" fill-opacity="1"><g transform="translate(39.885321, 65.190298)"><g><path d="M 4.015625 -6.046875 L 3.765625 -5.71875 C 3.648438 -5.78125 3.546875 -5.832031 3.453125 -5.875 C 3.359375 -5.925781 3.257812 -5.960938 3.15625 -5.984375 C 3.0625 -6.015625 2.957031 -6.035156 2.84375 -6.046875 C 2.738281 -6.066406 2.613281 -6.078125 2.46875 -6.078125 C 2.1875 -6.078125 1.929688 -6.03125 1.703125 -5.9375 C 1.472656 -5.84375 1.273438 -5.710938 1.109375 -5.546875 C 0.953125 -5.390625 0.832031 -5.207031 0.75 -5 C 0.664062 -4.789062 0.625 -4.570312 0.625 -4.34375 C 0.625 -4.03125 0.71875 -3.742188 0.90625 -3.484375 C 1.101562 -3.222656 1.40625 -3.023438 1.8125 -2.890625 C 2.007812 -2.816406 2.175781 -2.757812 2.3125 -2.71875 C 2.445312 -2.675781 2.570312 -2.632812 2.6875 -2.59375 C 2.8125 -2.5625 2.929688 -2.519531 3.046875 -2.46875 C 3.171875 -2.425781 3.316406 -2.367188 3.484375 -2.296875 C 3.679688 -2.203125 3.816406 -2.066406 3.890625 -1.890625 C 3.960938 -1.722656 4 -1.554688 4 -1.390625 C 4 -1.171875 3.957031 -0.972656 3.875 -0.796875 C 3.789062 -0.628906 3.679688 -0.484375 3.546875 -0.359375 C 3.410156 -0.242188 3.253906 -0.148438 3.078125 -0.078125 C 2.898438 -0.015625 2.71875 0.015625 2.53125 0.015625 C 2.3125 0.015625 2.101562 -0.0195312 1.90625 -0.09375 C 1.71875 -0.175781 1.539062 -0.285156 1.375 -0.421875 C 1.207031 -0.554688 1.0625 -0.722656 0.9375 -0.921875 C 0.8125 -1.128906 0.71875 -1.359375 0.65625 -1.609375 C 0.632812 -1.679688 0.601562 -1.71875 0.5625 -1.71875 C 0.519531 -1.71875 0.5 -1.675781 0.5 -1.59375 L 0.5 0 C 0.5 0.0703125 0.523438 0.109375 0.578125 0.109375 C 0.609375 0.109375 0.644531 0.0820312 0.6875 0.03125 L 1.015625 -0.4375 C 1.085938 -0.375 1.175781 -0.304688 1.28125 -0.234375 C 1.382812 -0.160156 1.5 -0.09375 1.625 -0.03125 C 1.75 0.0195312 1.882812 0.0664062 2.03125 0.109375 C 2.175781 0.148438 2.328125 0.171875 2.484375 0.171875 C 2.765625 0.171875 3.023438 0.117188 3.265625 0.015625 C 3.515625 -0.0859375 3.726562 -0.226562 3.90625 -0.40625 C 4.082031 -0.59375 4.222656 -0.8125 4.328125 -1.0625 C 4.429688 -1.320312 4.484375 -1.597656 4.484375 -1.890625 C 4.484375 -2.285156 4.390625 -2.617188 4.203125 -2.890625 C 4.015625 -3.171875 3.722656 -3.367188 3.328125 -3.484375 C 3.191406 -3.523438 3.0625 -3.5625 2.9375 -3.59375 C 2.820312 -3.625 2.703125 -3.65625 2.578125 -3.6875 C 2.453125 -3.726562 2.320312 -3.769531 2.1875 -3.8125 C 2.050781 -3.863281 1.898438 -3.921875 1.734375 -3.984375 C 1.546875 -4.054688 1.40625 -4.164062 1.3125 -4.3125 C 1.21875 -4.457031 1.171875 -4.628906 1.171875 -4.828125 C 1.171875 -5.015625 1.207031 -5.175781 1.28125 -5.3125 C 1.351562 -5.445312 1.453125 -5.5625 1.578125 -5.65625 C 1.703125 -5.75 1.84375 -5.816406 2 -5.859375 C 2.15625 -5.898438 2.3125 -5.921875 2.46875 -5.921875 C 2.71875 -5.921875 2.929688 -5.878906 3.109375 -5.796875 C 3.296875 -5.710938 3.453125 -5.601562 3.578125 -5.46875 C 3.703125 -5.332031 3.800781 -5.175781 3.875 -5 C 3.945312 -4.820312 4 -4.632812 4.03125 -4.4375 C 4.03125 -4.382812 4.054688 -4.359375 4.109375 -4.359375 C 4.148438 -4.359375 4.171875 -4.382812 4.171875 -4.4375 L 4.171875 -6.03125 C 4.171875 -6.09375 4.148438 -6.125 4.109375 -6.125 C 4.078125 -6.125 4.046875 -6.097656 4.015625 -6.046875 Z M 4.015625 -6.046875 "/></g></g></g><g fill="#1c2120" fill-opacity="1"><g transform="translate(44.708787, 65.190298)"><g><path d="M 0.203125 -0.140625 L 0.203125 0 L 2.171875 0 L 2.171875 -0.140625 L 1.125 -0.140625 L 1.6875 -1.859375 L 3.46875 -1.859375 L 4.046875 -0.140625 L 3.140625 -0.140625 L 3.140625 0 L 5.75 0 L 5.75 -0.140625 L 4.96875 -0.140625 L 3.015625 -6.0625 L 2.90625 -6.0625 L 0.96875 -0.140625 Z M 2.578125 -4.546875 L 3.421875 -2 L 1.734375 -2 Z M 2.578125 -4.546875 "/></g></g></g><g fill="#1c2120" fill-opacity="1"><g transform="translate(50.591281, 65.190298)"><g><path d="M 4.9375 -1.640625 C 4.894531 -1.421875 4.847656 -1.21875 4.796875 -1.03125 C 4.742188 -0.84375 4.671875 -0.679688 4.578125 -0.546875 C 4.484375 -0.421875 4.367188 -0.320312 4.234375 -0.25 C 4.097656 -0.175781 3.925781 -0.140625 3.71875 -0.140625 L 1.890625 -0.140625 L 1.890625 -5.84375 L 2.75 -5.84375 L 2.75 -5.984375 L 0.265625 -5.984375 L 0.265625 -5.84375 L 1.03125 -5.84375 L 1.03125 -0.140625 L 0.265625 -0.140625 L 0.265625 0 L 4.859375 0 C 5.023438 0 5.109375 -0.09375 5.109375 -0.28125 L 5.109375 -1.625 C 5.109375 -1.757812 5.085938 -1.828125 5.046875 -1.828125 C 5.003906 -1.828125 4.96875 -1.765625 4.9375 -1.640625 Z M 4.9375 -1.640625 "/></g></g></g><g fill="#1c2120" fill-opacity="1"><g transform="translate(55.922014, 65.190298)"><g><path d="M 3.125 0.171875 C 3.5 0.171875 3.851562 0.0820312 4.1875 -0.09375 C 4.519531 -0.269531 4.8125 -0.503906 5.0625 -0.796875 C 5.3125 -1.085938 5.507812 -1.421875 5.65625 -1.796875 C 5.800781 -2.171875 5.875 -2.5625 5.875 -2.96875 C 5.875 -3.375 5.800781 -3.765625 5.65625 -4.140625 C 5.507812 -4.515625 5.3125 -4.84375 5.0625 -5.125 C 4.8125 -5.414062 4.519531 -5.644531 4.1875 -5.8125 C 3.851562 -5.988281 3.5 -6.078125 3.125 -6.078125 C 2.738281 -6.078125 2.378906 -5.988281 2.046875 -5.8125 C 1.710938 -5.644531 1.421875 -5.414062 1.171875 -5.125 C 0.921875 -4.84375 0.722656 -4.515625 0.578125 -4.140625 C 0.429688 -3.765625 0.359375 -3.375 0.359375 -2.96875 C 0.359375 -2.5625 0.429688 -2.171875 0.578125 -1.796875 C 0.722656 -1.421875 0.921875 -1.085938 1.171875 -0.796875 C 1.421875 -0.503906 1.710938 -0.269531 2.046875 -0.09375 C 2.378906 0.0820312 2.738281 0.171875 3.125 0.171875 Z M 3.125 -5.921875 C 3.382812 -5.921875 3.617188 -5.878906 3.828125 -5.796875 C 4.035156 -5.710938 4.207031 -5.570312 4.34375 -5.375 C 4.488281 -5.175781 4.597656 -4.914062 4.671875 -4.59375 C 4.742188 -4.28125 4.78125 -3.882812 4.78125 -3.40625 L 4.78125 -2.515625 C 4.78125 -1.660156 4.632812 -1.023438 4.34375 -0.609375 C 4.0625 -0.191406 3.65625 0.015625 3.125 0.015625 C 2.582031 0.015625 2.164062 -0.191406 1.875 -0.609375 C 1.59375 -1.023438 1.453125 -1.660156 1.453125 -2.515625 L 1.453125 -3.40625 C 1.453125 -3.875 1.488281 -4.265625 1.5625 -4.578125 C 1.632812 -4.898438 1.738281 -5.160156 1.875 -5.359375 C 2.019531 -5.554688 2.195312 -5.695312 2.40625 -5.78125 C 2.613281 -5.875 2.851562 -5.921875 3.125 -5.921875 Z M 3.125 -5.921875 "/></g></g></g><g fill="#1c2120" fill-opacity="1"><g transform="translate(62.071489, 65.190298)"><g><path d="M 0.234375 -0.140625 L 0.234375 0 L 1.921875 0 L 1.921875 -0.140625 L 1.15625 -0.140625 L 1.15625 -5.578125 L 4.59375 0.078125 L 4.90625 0.078125 L 4.90625 -5.84375 L 5.671875 -5.84375 L 5.671875 -5.984375 L 3.984375 -5.984375 L 3.984375 -5.84375 L 4.75 -5.84375 L 4.75 -1.46875 L 2 -5.984375 L 0.234375 -5.984375 L 0.234375 -5.84375 L 1 -5.84375 L 1 -0.140625 Z M 0.234375 -0.140625 "/></g></g></g></svg>