<svg xmlns="http://www.w3.org/2000/svg" xmlns:xlink="http://www.w3.org/1999/xlink" width="150" zoomAndPan="magnify" viewBox="0 0 112.5 112.499997" height="150" preserveAspectRatio="xMidYMid meet" version="1.0"><defs><clipPath id="b54d45ccf8"><path d="M 0 0 L 112 0 L 112 112.003906 L 0 112.003906 Z M 0 0 " clip-rule="nonzero"/></clipPath></defs><g clip-path="url(#b54d45ccf8)"><path fill="#000000" d="M 55.992188 0.0078125 C 71.453125 0.0078125 85.457031 6.277344 95.589844 16.410156 C 105.726562 26.542969 111.996094 40.542969 111.996094 56.011719 C 111.996094 71.472656 105.726562 85.472656 95.589844 95.609375 C 85.457031 105.746094 71.457031 112.011719 55.992188 112.011719 C 40.527344 112.011719 26.527344 105.742188 16.390625 95.609375 C 6.253906 85.476562 -0.0078125 71.472656 -0.0078125 56.011719 C -0.0078125 40.546875 6.257812 26.546875 16.390625 16.410156 C 26.527344 6.273438 40.527344 0.0078125 55.992188 0.0078125 Z M 93.390625 18.609375 C 83.820312 9.039062 70.597656 3.121094 55.992188 3.121094 C 41.386719 3.121094 28.164062 9.039062 18.59375 18.609375 C 9.019531 28.183594 3.101562 41.402344 3.101562 56.011719 C 3.101562 70.613281 9.019531 83.839844 18.59375 93.410156 C 28.164062 102.980469 41.386719 108.902344 55.992188 108.902344 C 70.597656 108.902344 83.820312 102.980469 93.390625 93.410156 C 102.960938 83.839844 108.882812 70.617188 108.882812 56.011719 C 108.882812 41.40625 102.960938 28.183594 93.390625 18.609375 Z M 93.390625 18.609375 " fill-opacity="1" fill-rule="nonzero"/></g><path fill="#000000" d="M 55.992188 21.007812 C 66.460938 21.007812 74.949219 28.628906 74.949219 38.03125 C 74.949219 44.941406 59.5 77.148438 55.941406 85.582031 C 50.894531 73.609375 40.53125 53.375 37.542969 41.941406 L 37.539062 41.933594 C 37.210938 40.683594 37.039062 39.375 37.039062 38.03125 C 37.035156 28.628906 45.523438 21.007812 55.992188 21.007812 Z M 55.992188 28.996094 C 51.007812 28.996094 46.964844 33.035156 46.964844 38.019531 C 46.964844 43.003906 51.007812 47.046875 55.992188 47.046875 C 60.976562 47.046875 65.015625 43.003906 65.015625 38.019531 C 65.015625 33.035156 60.976562 28.996094 55.992188 28.996094 Z M 55.992188 28.996094 " fill-opacity="1" fill-rule="evenodd"/><path fill="#000000" d="M 70.09375 83.941406 C 70.09375 80.980469 66.421875 78.359375 60.988281 77.328125 C 59.675781 80.230469 58.328125 83.136719 57.09375 86.070312 L 55.941406 88.800781 L 54.789062 86.070312 L 51.09375 77.308594 C 45.605469 78.328125 41.890625 80.960938 41.890625 83.941406 C 41.890625 87.847656 48.203125 91.011719 55.992188 91.011719 C 63.78125 91.011719 70.09375 87.84375 70.09375 83.941406 Z M 70.09375 83.941406 " fill-opacity="1" fill-rule="evenodd"/></svg>