<svg xmlns="http://www.w3.org/2000/svg" xmlns:xlink="http://www.w3.org/1999/xlink" width="150" zoomAndPan="magnify" viewBox="0 0 112.5 112.499997" height="150" preserveAspectRatio="xMidYMid meet" version="1.0"><defs><clipPath id="1daa474d06"><path d="M 0 0 L 112.003906 0 L 112.003906 112.003906 L 0 112.003906 Z M 0 0 " clip-rule="nonzero"/></clipPath></defs><g clip-path="url(#1daa474d06)"><path fill="#000000" d="M 56.019531 0 C 71.492188 0 85.488281 6.269531 95.628906 16.410156 C 105.769531 26.539062 112.039062 40.546875 112.039062 56.019531 C 112.039062 71.480469 105.769531 85.488281 95.628906 95.628906 C 85.488281 105.769531 71.492188 112.039062 56.019531 112.039062 C 40.546875 112.039062 26.539062 105.769531 16.410156 95.628906 C 6.269531 85.488281 0 71.480469 0 56.019531 C 0 40.546875 6.269531 26.539062 16.410156 16.410156 C 26.539062 6.269531 40.546875 0 56.019531 0 Z M 93.347656 18.683594 C 83.800781 9.136719 70.601562 3.21875 56.019531 3.21875 C 41.441406 3.21875 28.238281 9.136719 18.683594 18.683594 C 9.136719 28.238281 3.21875 41.441406 3.21875 56.019531 C 3.21875 70.601562 9.136719 83.800781 18.683594 93.347656 C 28.238281 102.90625 41.441406 108.808594 56.019531 108.808594 C 70.601562 108.808594 83.800781 102.90625 93.347656 93.347656 C 102.90625 83.800781 108.808594 70.601562 108.808594 56.019531 C 108.808594 41.441406 102.90625 28.238281 93.347656 18.683594 Z M 93.347656 18.683594 " fill-opacity="1" fill-rule="nonzero"/></g><path fill="#000000" d="M 42.59375 50.425781 C 43.824219 53.992188 46.78125 58.121094 50.347656 61.691406 C 53.917969 65.257812 58.039062 68.214844 61.617188 69.445312 L 65.785156 65.265625 C 66.601562 64.460938 67.605469 63.945312 68.675781 63.726562 C 69.746094 63.53125 70.871094 63.632812 71.921875 64.085938 L 72.898438 64.480469 C 76.035156 65.792969 79.679688 67.277344 83.3125 68.761719 L 83.707031 68.917969 C 84.476562 69.238281 85.152344 69.699219 85.695312 70.289062 C 86.25 70.882812 86.664062 71.585938 86.917969 72.382812 C 87.171875 73.171875 87.246094 73.988281 87.152344 74.785156 C 87.058594 75.585938 86.777344 76.355469 86.324219 77.070312 C 85.28125 78.730469 84.148438 80.15625 82.945312 81.359375 C 78.175781 86.136719 72.242188 87.648438 66.121094 87.078125 C 60.167969 86.53125 54.058594 83.996094 48.679688 80.617188 C 45.09375 78.363281 41.835938 75.726562 39.167969 73.070312 L 38.972656 72.871094 C 36.304688 70.207031 33.675781 66.949219 31.421875 63.363281 C 28.042969 57.980469 25.507812 51.859375 24.953125 45.917969 C 24.390625 39.789062 25.902344 33.863281 30.679688 29.085938 C 31.890625 27.882812 33.320312 26.746094 34.972656 25.707031 C 35.675781 25.253906 36.453125 24.980469 37.253906 24.878906 L 37.253906 24.886719 C 38.042969 24.785156 38.859375 24.859375 39.648438 25.125 C 40.453125 25.375 41.160156 25.789062 41.75 26.335938 C 42.332031 26.878906 42.800781 27.554688 43.121094 28.332031 L 43.335938 28.878906 C 44.800781 32.464844 46.257812 36.050781 47.5625 39.128906 C 47.570312 39.148438 47.910156 40.003906 47.945312 40.105469 C 48.40625 41.167969 48.507812 42.292969 48.300781 43.355469 C 48.097656 44.433594 47.578125 45.4375 46.761719 46.246094 Z M 48.066406 63.972656 C 43.84375 59.746094 40.378906 54.707031 39.214844 50.378906 L 38.972656 49.484375 L 44.480469 43.964844 C 44.839844 43.617188 45.0625 43.195312 45.148438 42.753906 C 45.234375 42.304688 45.1875 41.824219 44.988281 41.363281 L 44.59375 40.371094 C 43.027344 36.640625 41.695312 33.367188 40.359375 30.089844 L 40.136719 29.535156 C 39.992188 29.207031 39.796875 28.914062 39.554688 28.691406 C 39.308594 28.464844 39.007812 28.285156 38.671875 28.175781 C 38.324219 28.070312 37.976562 28.035156 37.636719 28.070312 C 37.300781 28.128906 36.980469 28.238281 36.679688 28.425781 C 35.242188 29.328125 34.003906 30.316406 32.953125 31.367188 C 28.945312 35.382812 27.675781 40.40625 28.15625 45.628906 C 28.652344 51.023438 31 56.660156 34.144531 61.644531 C 36.25 65.003906 38.726562 68.066406 41.253906 70.589844 L 41.449219 70.789062 C 43.964844 73.3125 47.035156 75.78125 50.394531 77.894531 C 55.382812 81.03125 61.015625 83.378906 66.402344 83.882812 C 71.625 84.363281 76.65625 83.09375 80.664062 79.078125 C 81.726562 78.027344 82.710938 76.785156 83.613281 75.359375 C 83.800781 75.058594 83.914062 74.730469 83.960938 74.394531 C 84.007812 74.0625 83.96875 73.714844 83.855469 73.371094 C 83.742188 73.023438 83.574219 72.722656 83.347656 72.476562 C 83.125 72.234375 82.832031 72.035156 82.496094 71.90625 L 82.101562 71.746094 C 78.769531 70.382812 75.445312 69.03125 71.652344 67.4375 L 70.664062 67.042969 C 70.214844 66.855469 69.734375 66.808594 69.285156 66.890625 C 68.84375 66.976562 68.414062 67.203125 68.066406 67.546875 L 62.554688 73.070312 L 61.652344 72.824219 C 57.335938 71.660156 52.285156 68.1875 48.066406 63.972656 Z M 48.066406 63.972656 " fill-opacity="1" fill-rule="nonzero"/></svg>